<svg width="17" height="17" viewBox="0 0 17 17" fill="none" xmlns="http://www.w3.org/2000/svg">
<g id="white">
<path id="Union" fill-rule="evenodd" clip-rule="evenodd" d="M8.4483 12.8126C7.53286 12.6751 6.6758 12.2984 5.99016 11.7031C5.96007 11.6766 5.92999 11.6484 5.90146 11.6216L5.90134 11.6215L5.89598 11.6165C5.83193 11.5581 5.77166 11.4978 5.71138 11.4357C5.6511 11.3735 5.5946 11.3094 5.53809 11.2454L5.50928 11.2118L5.50926 11.2117C5.46384 11.1588 5.41805 11.1054 5.37609 11.0495C4.73754 10.2301 4.38907 9.22991 4.38907 8.17131C4.38907 7.08257 4.75638 6.05222 5.43072 5.21965C5.43731 5.21117 5.4439 5.20317 5.4505 5.19516C5.45709 5.18716 5.46368 5.17915 5.47028 5.17068C5.56257 5.05954 5.65864 4.95218 5.76224 4.85046C5.97321 4.63949 6.20113 4.45489 6.44223 4.29102L6.44224 4.29102C6.51193 4.24393 6.58162 4.19684 6.6532 4.1554C6.66733 4.14692 6.68192 4.13844 6.69652 4.12997C6.71112 4.12149 6.72572 4.11301 6.73985 4.10454C7.2635 3.81069 7.84366 3.61291 8.45019 3.52061C8.85517 3.46034 9.21118 3.2456 9.45417 2.91596C9.69716 2.58633 9.79887 2.18135 9.73671 1.77636C9.67455 1.37138 9.45982 1.01349 9.13206 0.770502C8.82315 0.542582 8.45019 0.442749 8.07158 0.480422V0.478538L8.03767 0.484189C8.03014 0.485131 8.0226 0.485602 8.01507 0.486073C8.00753 0.486543 8 0.487014 7.99246 0.487956C7.85684 0.508676 7.7231 0.533163 7.58937 0.559534C6.08434 0.849614 4.69798 1.57481 3.59229 2.68051C0.570937 5.70186 0.565286 10.6163 3.57722 13.6433L3.59417 13.6602L3.59606 13.6621L3.59794 13.664C4.82042 14.8846 6.38007 15.6437 8.06969 15.8622V15.8528C8.44831 15.8905 8.82315 15.7906 9.13018 15.5627C9.45982 15.3197 9.67455 14.9618 9.73483 14.5568C9.7951 14.1519 9.69527 13.7469 9.45228 13.4172C9.20929 13.0876 8.85329 12.8729 8.4483 12.8126ZM13.3382 5.21401C14.5701 5.21401 15.5722 4.24017 15.5722 3.04406C15.5722 1.81216 14.5701 0.810065 13.3382 0.810065C12.1421 0.810065 11.1683 1.81216 11.1683 3.04406C11.1683 4.24017 12.1421 5.21401 13.3382 5.21401ZM13.1499 9.81762C14.7001 9.81762 15.2708 10.669 15.4762 11.3829C15.9075 12.8823 15.0373 15.4855 13.2667 16.5931L12.9276 16.8059V14.1481C11.8257 14.0351 10.978 13.1083 10.978 11.9876C10.978 10.7915 11.9538 9.81762 13.1499 9.81762Z" fill="white"/>
</g>
</svg>
